<svg xmlns="http://www.w3.org/2000/svg" viewBox="0 0 200 200">
  <defs>
    <linearGradient id="g" x1="0" x2="1" y1="0" y2="1">
      <stop offset="0%" stop-color="#ffb15c"/>
      <stop offset="100%" stop-color="#ff7b36"/>
    </linearGradient>
  </defs>
  <rect width="200" height="200" rx="48" fill="#111827"/>
  <circle cx="100" cy="95" r="48" fill="url(#g)"/>
  <path d="M70 98c0-14 11-25 25-25h23c12 0 22 10 22 22v7c0 12-10 22-22 22H95c-14 0-25-11-25-26z" fill="#22120a" opacity=".9"/>
  <path d="M127 84h7c11 0 20 9 20 20s-9 20-20 20h-7" fill="none" stroke="#22120a" stroke-width="10" stroke-linecap="round"/>
  <path d="M76 56c9-10 26-15 43-10" fill="none" stroke="#fff2df" stroke-opacity=".8" stroke-width="8" stroke-linecap="round"/>
  <text x="100" y="165" text-anchor="middle" font-family="Inter, Arial, sans-serif" font-size="24" font-weight="800" fill="#fff1df">BADSIDE</text>
</svg>
